HIERARCHY
ROOT Hips
{
	OFFSET 51.771000 -9.537876 100.708000
	CHANNELS 6 Xposition Yposition Zposition Xrotation Yrotation Zrotation
	JOINT spine
	{
		OFFSET 0.000000 -0.507026 8.817047
		CHANNELS 3 Xrotation Yrotation Zrotation
		JOINT spine1
		{
			OFFSET 0.000000 -0.000002 10.776604
			CHANNELS 3 Xrotation Yrotation Zrotation
			JOINT spine2
			{
				OFFSET 0.000000 -0.000001 10.325897
				CHANNELS 3 Xrotation Yrotation Zrotation
				JOINT Neck
				{
					OFFSET 0.000000 -1.263955 26.511002
					CHANNELS 3 Xrotation Yrotation Zrotation
					JOINT Head
					{
						OFFSET 0.000000 -0.000001 8.009659
						CHANNELS 3 Xrotation Yrotation Zrotation
						End Site
						{
							OFFSET 0.000000 6.393857 19.387894
						}
					}
				}
				JOINT RightShoulder
				{
					OFFSET -4.347950 0.605420 11.151199
					CHANNELS 3 Xrotation Yrotation Zrotation
					JOINT RightArm
					{
						OFFSET 0.000000 -0.000003 14.625793
						CHANNELS 3 Xrotation Yrotation Zrotation
						JOINT RightArmRoll
						{
							OFFSET 0.000000 -0.000001 7.383392
							CHANNELS 3 Xrotation Yrotation Zrotation
							JOINT RightForeArm
							{
								OFFSET 0.000000 -0.000004 21.505203
								CHANNELS 3 Xrotation Yrotation Zrotation
								JOINT RightForeArmRoll
								{
									OFFSET 0.000000 -0.000001 8.285324
									CHANNELS 3 Xrotation Yrotation Zrotation
									JOINT RightHand
									{
										OFFSET 0.000000 -0.000003 16.626801
										CHANNELS 3 Xrotation Yrotation Zrotation
										End Site
										{
											OFFSET 0.000000 0.000000 0.100006
										}
									}
								}
							}
						}
					}
				}
				JOINT LeftShoulder
				{
					OFFSET 4.347950 0.605420 11.151199
					CHANNELS 3 Xrotation Yrotation Zrotation
					JOINT LeftArm
					{
						OFFSET 0.000000 -0.000003 14.625793
						CHANNELS 3 Xrotation Yrotation Zrotation
						JOINT LeftArmRoll
						{
							OFFSET 0.000000 -0.000001 7.383392
							CHANNELS 3 Xrotation Yrotation Zrotation
							JOINT LeftForeArm
							{
								OFFSET 0.000000 -0.000004 21.505203
								CHANNELS 3 Xrotation Yrotation Zrotation
								JOINT LeftForeArmRoll
								{
									OFFSET 0.000000 -0.000001 8.285324
									CHANNELS 3 Xrotation Yrotation Zrotation
									JOINT LeftHand
									{
										OFFSET 0.000000 -0.000003 16.626801
										CHANNELS 3 Xrotation Yrotation Zrotation
										End Site
										{
											OFFSET 0.000000 0.000000 0.100006
										}
									}
								}
							}
						}
					}
				}
			}
		}
	}
	JOINT RightUpLeg
	{
		OFFSET -7.815102 1.202170 -1.433090
		CHANNELS 3 Xrotation Yrotation Zrotation
		JOINT RightUpLegRoll
		{
			OFFSET 0.000000 -0.000003 19.495903
			CHANNELS 3 Xrotation Yrotation Zrotation
			JOINT RightLeg
			{
				OFFSET 0.000000 0.000004 -24.142700
				CHANNELS 3 Xrotation Yrotation Zrotation
				JOINT RightLegRoll
				{
					OFFSET 0.000000 -0.000004 24.221703
					CHANNELS 3 Xrotation Yrotation Zrotation
					JOINT RightFoot
					{
						OFFSET 0.000000 -0.000004 20.160500
						CHANNELS 3 Xrotation Yrotation Zrotation
						JOINT RightToeBase
						{
							OFFSET 0.000000 -0.000003 16.853195
							CHANNELS 3 Xrotation Yrotation Zrotation
							End Site
							{
								OFFSET 0.007145 0.940779 8.161865
							}
						}
					}
				}
			}
		}
	}
	JOINT LeftUpLeg
	{
		OFFSET 7.815102 1.202170 -1.433090
		CHANNELS 3 Xrotation Yrotation Zrotation
		JOINT LeftUpLegRoll
		{
			OFFSET 0.000000 -0.000003 19.496002
			CHANNELS 3 Xrotation Yrotation Zrotation
			JOINT LeftLeg
			{
				OFFSET 0.000000 -0.000004 24.142601
				CHANNELS 3 Xrotation Yrotation Zrotation
				JOINT LeftLegRoll
				{
					OFFSET 0.000000 -0.000005 24.445602
					CHANNELS 3 Xrotation Yrotation Zrotation
					JOINT LeftFoot
					{
						OFFSET 0.000000 -0.000003 19.936600
						CHANNELS 3 Xrotation Yrotation Zrotation
						JOINT LeftToeBase
						{
							OFFSET 0.000000 -0.000003 16.853195
							CHANNELS 3 Xrotation Yrotation Zrotation
							End Site
							{
								OFFSET -0.032013 0.940779 8.161865
							}
						}
					}
				}
			}
		}
	}
}
MOTION
Frames: 9
Frame Time: 0.041667
51.392605 -10.128315 100.612999 -5.407477 -0.258074 1.669431 -2.330308 -0.006703 -0.011488 -0.657828 -0.013758 -0.024096 0.987247 -0.014034 -0.024304 30.160237 6.865320 -11.157339 -7.545539 -18.185927 -9.372756 -7.576870 -61.999130 -9.189515 -36.798932 -126.401284 -95.285927 0.000000 -0.000000 0.000000 101.493879 13.018023 -20.008751 0.000005 0.000008 -2.999988 -5.000242 -7.998753 0.000161 -8.560986 60.598517 10.235298 -52.096605 134.542378 84.038900 0.000006 -0.000001 -0.000001 90.671799 -3.447997 7.519918 0.000008 -0.000012 3.004998 -5.000230 7.998711 -0.000150 4.598694 -176.346769 1.355456 -179.999991 0.000005 -1.203001 171.146864 -1.347752 -0.536905 -0.000009 -0.000000 0.209909 71.631643 6.856193 2.059110 25.736400 -7.354181 0.419467 4.028322 176.205370 1.190246 -0.000005 -0.000004 -1.203540 -7.405818 2.191156 0.441322 -0.000005 -0.000003 -0.125040 70.093232 -6.904250 -2.024940 25.612931 7.355617 -0.238005 
51.381500 -10.124412 100.607994 -5.400027 -0.257279 1.666000 -2.334379 -0.006472 -0.011177 -0.665967 -0.012978 -0.025564 0.979109 -0.013273 -0.025809 30.240615 6.822121 -11.160305 -7.621658 -18.155517 -9.388677 -7.658422 -62.039523 -9.286788 -36.996891 -126.304049 -95.306773 0.000002 -0.000000 -0.000002 101.541301 13.020741 -20.030484 0.000006 0.000010 -2.999986 -5.000240 -7.998753 0.000165 -8.550853 60.584188 10.222144 -52.162462 134.417372 84.080954 0.000001 -0.000000 0.000000 90.714823 -3.474883 7.549279 0.000004 -0.000009 3.005002 -5.000229 7.998710 -0.000149 4.588113 -176.346714 1.353612 -179.999991 0.000005 -1.203001 171.145443 -1.347747 -0.536939 -0.000009 0.000000 0.209926 71.629813 6.856170 2.059218 25.736404 -7.354182 0.420067 4.019304 176.205329 1.190433 -0.000005 -0.000004 -1.203590 -7.407653 2.192298 0.441320 -0.000005 -0.000003 -0.125066 70.092262 -6.904194 -2.024993 25.612933 7.355619 -0.238295 
51.386005 -10.119612 100.609001 -5.392925 -0.256494 1.663286 -2.338232 -0.006244 -0.010855 -0.673656 -0.012262 -0.026561 0.971417 -0.012573 -0.026833 30.313715 6.778749 -11.163132 -7.686889 -18.124530 -9.403346 -7.734967 -62.073743 -9.377660 -37.187515 -126.208645 -95.308186 0.000001 -0.000000 -0.000003 101.594112 13.021942 -20.051690 0.000004 0.000006 -2.999988 -5.000240 -7.998750 0.000163 -8.537152 60.568970 10.204669 -52.228114 134.296450 84.119039 0.000001 -0.000001 0.000001 90.759076 -3.499886 7.577985 0.000003 -0.000011 3.005002 -5.000235 7.998713 -0.000147 4.577930 -176.346660 1.351874 -179.999991 0.000005 -1.203001 171.143941 -1.346756 -0.536821 -0.000009 -0.000000 0.209943 71.628194 6.856107 2.059209 25.736404 -7.354181 0.420517 4.010403 176.205289 1.190592 -0.000005 -0.000004 -1.203640 -7.409521 2.193438 0.441317 -0.000005 -0.000003 -0.125090 70.091203 -6.904202 -2.025059 25.612827 7.355623 -0.238552 
51.388805 -10.118913 100.611000 -5.386352 -0.255721 1.661359 -2.341772 -0.006035 -0.010523 -0.680730 -0.011651 -0.027014 0.964341 -0.011974 -0.027299 30.378147 6.735715 -11.165985 -7.739592 -18.093630 -9.416717 -7.805143 -62.100339 -9.460457 -37.367203 -126.115960 -95.284820 -0.000000 -0.000001 -0.000002 101.654265 13.020971 -20.075541 0.000003 0.000011 -2.999987 -5.000242 -7.998753 0.000167 -8.519935 60.552673 10.182884 -52.293458 134.180665 84.153040 0.000004 -0.000001 0.000000 90.804578 -3.522545 7.604935 0.000005 -0.000011 3.004998 -5.000227 7.998711 -0.000151 4.568389 -176.346605 1.350276 -179.999991 0.000005 -1.203001 171.142370 -1.346750 -0.536858 -0.000009 0.000000 0.209960 71.626691 6.856108 2.059201 25.736402 -7.354181 0.420777 4.001797 176.204250 1.190632 -0.000005 -0.000004 -1.203690 -7.411427 2.194540 0.441316 -0.000005 -0.000003 -0.125114 70.090254 -6.904214 -2.024918 25.612830 7.355613 -0.238808 
51.406403 -10.114919 100.610001 -5.379764 -0.254890 1.660377 -2.345251 -0.005762 -0.010131 -0.687713 -0.010974 -0.026861 0.957361 -0.011303 -0.027150 30.436901 6.689095 -11.168457 -7.782190 -18.058861 -9.429208 -7.873198 -62.123105 -9.540327 -37.541469 -126.022441 -95.245881 -0.000001 -0.000001 -0.000001 101.720177 13.019178 -20.101949 0.000005 0.000009 -2.999986 -5.000244 -7.998753 0.000162 -8.495785 60.535120 10.152784 -52.358857 134.066915 84.182375 0.000004 -0.000000 0.000000 90.851795 -3.543334 7.631447 0.000004 -0.000012 3.005000 -5.000227 7.998709 -0.000149 4.558871 -176.346550 1.348649 -179.999991 0.000005 -1.203001 171.140676 -1.346744 -0.536897 -0.000008 0.000000 0.209977 71.625380 6.856043 2.059269 25.736406 -7.354182 0.420887 3.992757 176.204209 1.190660 -0.000005 -0.000004 -1.203730 -7.413534 2.195679 0.441313 -0.000005 -0.000003 -0.125143 70.089175 -6.904190 -2.025082 25.612827 7.355614 -0.239079 
51.400799 -10.113214 100.609001 -5.372584 -0.253948 1.660347 -2.348960 -0.005349 -0.009639 -0.695183 -0.010056 -0.026144 0.949887 -0.010388 -0.026434 30.493557 6.635463 -11.170036 -7.818377 -18.016711 -9.441236 -7.943709 -62.146402 -9.622884 -37.716950 -125.925029 -95.202407 0.000002 -0.000001 -0.000000 101.789927 13.017526 -20.128815 0.000004 0.000010 -2.999988 -5.000241 -7.998753 0.000165 -8.462329 60.516835 10.111585 -52.424379 133.951785 84.206356 0.000003 0.000000 -0.000001 90.900857 -3.563279 7.656220 0.000004 -0.000011 3.005000 -5.000227 7.998706 -0.000151 4.548670 -176.346496 1.346809 -179.999991 0.000005 -1.203001 171.138900 -1.345752 -0.536785 -0.000009 0.000000 0.209993 71.623980 6.856009 2.059251 25.736406 -7.354182 0.420897 3.982550 176.203171 1.190507 -0.000005 -0.000004 -1.203780 -7.415972 2.196966 0.441311 -0.000005 -0.000003 -0.125182 70.087925 -6.904226 -2.025066 25.612721 7.355619 -0.239345 
51.391502 -10.112018 100.608994 -5.364869 -0.252924 1.661138 -2.352870 -0.004818 -0.009066 -0.703061 -0.008937 -0.024943 0.942013 -0.009269 -0.025229 30.548028 6.576018 -11.170756 -7.848381 -17.968259 -9.452652 -8.015892 -62.169782 -9.707205 -37.893377 -125.824652 -95.154063 -0.000000 -0.000000 -0.000003 101.863706 13.015259 -20.159080 0.000002 0.000011 -2.999984 -5.000247 -7.998749 0.000166 -8.420907 60.497745 10.060878 -52.490321 133.835480 84.225890 -0.000003 -0.000002 -0.000001 90.951571 -3.582274 7.680358 0.000003 -0.000011 3.005003 -5.000229 7.998715 -0.000148 4.537855 -176.347466 1.344710 -179.999991 0.000005 -1.203001 171.136974 -1.345745 -0.536831 -0.000009 0.000000 0.210010 71.622586 6.856008 2.059237 25.736508 -7.354176 0.420809 3.971326 176.203117 1.190330 -0.000005 -0.000003 -1.203820 -7.418671 2.198371 0.441308 -0.000005 -0.000003 -0.125229 70.086641 -6.904196 -2.025039 25.612728 7.355619 -0.239635 
51.411205 -10.110417 100.608002 -5.356724 -0.251843 1.662646 -2.356932 -0.004190 -0.008431 -0.711257 -0.007655 -0.023336 0.933817 -0.007984 -0.023615 30.599978 6.511959 -11.170649 -7.872456 -17.914685 -9.463387 -8.088976 -62.192766 -9.792385 -38.070867 -125.721407 -95.100801 0.000001 0.000001 -0.000001 101.940348 13.012892 -20.188671 0.000007 0.000008 -2.999986 -5.000244 -7.998750 0.000163 -8.372832 60.478060 10.002249 -52.556728 133.718015 84.241504 0.000002 0.000000 0.000000 91.003781 -3.600422 7.704943 0.000003 -0.000007 3.005000 -5.000230 7.998710 -0.000149 4.526530 -176.347397 1.342569 -179.999991 0.000005 -1.203001 171.134939 -1.344752 -0.536725 -0.000009 -0.000000 0.210026 71.621295 6.855971 2.059209 25.736506 -7.354177 0.420639 3.959263 176.202051 1.190020 -0.000005 -0.000004 -1.203860 -7.421551 2.199883 0.441305 -0.000005 -0.000003 -0.125281 70.085261 -6.904195 -2.025026 25.612730 7.355612 -0.239920 
51.410706 -10.099717 100.607002 -5.348211 -0.250734 1.664737 -2.361101 -0.003486 -0.007752 -0.719688 -0.006250 -0.021403 0.925384 -0.006573 -0.021672 30.649504 6.444478 -11.169765 -7.890861 -17.857081 -9.473317 -8.162124 -62.214813 -9.877460 -38.247232 -125.617738 -95.039705 0.000001 0.000001 -0.000004 102.020049 13.009250 -20.220464 0.000005 0.000007 -2.999987 -5.000241 -7.998754 0.000168 -8.319491 60.457993 9.937339 -52.623063 133.600167 84.253068 0.000002 -0.000003 0.000001 91.057138 -3.617869 7.727584 0.000004 -0.000009 3.005000 -5.000225 7.998711 -0.000151 4.514752 -176.348340 1.340240 -179.999991 0.000005 -1.203001 171.132712 -1.343745 -0.536621 -0.000009 -0.000000 0.210042 71.619991 6.855936 2.059283 25.736605 -7.354180 0.420397 3.946530 176.200999 1.189664 -0.000005 -0.000004 -1.203900 -7.424562 2.201494 0.441304 -0.000005 -0.000003 -0.125335 70.083669 -6.904190 -2.025025 25.612629 7.355619 -0.240198 
